<svg xmlns="http://www.w3.org/2000/svg" xmlns:xlink="http://www.w3.org/1999/xlink" viewBox="0,0,256,256" width="16px" height="16px"><g fill="#f1edd5" fill-rule="nonzero" stroke="none" stroke-width="1" stroke-linecap="butt" stroke-linejoin="miter" stroke-miterlimit="10" stroke-dasharray="" stroke-dashoffset="0" font-family="none" font-weight="none" font-size="none" text-anchor="none" style="mix-blend-mode: normal"><path d="M0,256v-256h256v256z" id="bgRectangle"></path></g><g fill="none" fill-rule="nonzero" stroke="none" stroke-width="1" stroke-linecap="butt" stroke-linejoin="miter" stroke-miterlimit="10" stroke-dasharray="" stroke-dashoffset="0" font-family="none" font-weight="none" font-size="none" text-anchor="none" style="mix-blend-mode: normal"><g transform="scale(6.4,6.4)"><rect x="3.5" y="11.5" width="33" height="4" fill="#c5d4de" stroke="none"></rect><rect x="15" y="3.5" width="10" height="3" fill="#c5d4de" stroke="none"></rect><rect x="3.5" y="11.5" width="33" height="4" fill="none" stroke="#b0c1d4"></rect><path d="M25,3.5h-10" fill="none" stroke="#b0c1d4"></path><path d="M14.5,6.5h11" fill="none" stroke="#b0c1d4"></path><path d="M28.5,15.5v-9l-3,-2.5v11.5h-11v-11.5l-3,2.5v9h-8v19c0,1.105 0.895,2 2,2h29c1.105,0 2,-0.895 2,-2v-19z" fill="#ffffff" stroke="none"></path><path d="M28.5,15.5v-9l-3,-2.5v11.5h-11v-11.5l-3,2.5v9h-8v19c0,1.105 0.895,2 2,2h29c1.105,0 2,-0.895 2,-2v-19z" fill="none" stroke="#e1ebf2"></path><rect x="14.5" y="20.5" width="4.5" height="4.5" fill="#f78f8f" stroke="#c74343"></rect><rect x="21" y="20.5" width="4.5" height="4.5" fill="#bae0bd" stroke="#5e9c76"></rect><rect x="14.5" y="27" width="4.5" height="4.5" fill="#8bb7f0" stroke="#4e7ab5"></rect><rect x="21" y="27" width="4.5" height="4.5" fill="#ffeea3" stroke="#f5ce85"></rect></g></g></svg>